<?xml version="1.0" encoding="UTF-8"?>
<svg width="512" height="512" viewBox="0 0 512 512" xmlns="http://www.w3.org/2000/svg">
  <defs>
    <linearGradient id="leafGradient" x1="0%" y1="0%" x2="100%" y2="100%">
      <stop offset="0%" style="stop-color:#4CAF50"/>
      <stop offset="100%" style="stop-color:#2E7D32"/>
    </linearGradient>
  </defs>
  <circle cx="256" cy="256" r="240" fill="#f5f5f5"/>
  <g transform="translate(128, 96)">
    <path d="M128 32c0 70.7-57.3 128-128 128 70.7 0 128 57.3 128 128 0-70.7 57.3-128 128-128-70.7 0-128-57.3-128-128z" fill="url(#leafGradient)"/>
    <path d="M128 160c0 35.3-28.7 64-64 64 35.3 0 64 28.7 64 64 0-35.3 28.7-64 64-64-35.3 0-64-28.7-64-64z" fill="#81C784"/>
  </g>
</svg>
